<?xml version="1.0" encoding="UTF-8"?>
<svg version="1.1" xmlns="http://www.w3.org/2000/svg" width="512" height="512">
<path d="M0 0 C0.97088562 0.00215515 1.94177124 0.0043103 2.94207764 0.00653076 C17.27751026 0.05757173 31.28525803 0.44028152 45.375 3.3125 C46.40109375 3.51649414 47.4271875 3.72048828 48.484375 3.93066406 C108.37765666 16.11866303 163.55791322 47.75891661 201.375 96.3125 C202.52162109 97.71628906 202.52162109 97.71628906 203.69140625 99.1484375 C211.52961441 108.93676165 217.99776552 119.53152658 224.375 130.3125 C224.95894531 131.28993164 224.95894531 131.28993164 225.5546875 132.28710938 C247.38644274 169.26156702 256.85781833 213.36793736 256.6875 255.9375 C256.68534485 256.90838562 256.6831897 257.87927124 256.68096924 258.87957764 C256.62992827 273.21501026 256.24721848 287.22275803 253.375 301.3125 C253.17100586 302.33859375 252.96701172 303.3646875 252.75683594 304.421875 C240.56883697 364.31515666 208.92858339 419.49541322 160.375 457.3125 C159.43914062 458.07691406 158.50328125 458.84132813 157.5390625 459.62890625 C147.75073835 467.46711441 137.15597342 473.93526552 126.375 480.3125 C125.72337891 480.70179688 125.07175781 481.09109375 124.40039062 481.4921875 C87.42593298 503.32394274 43.31956264 512.79531833 0.75 512.625 C-0.22088562 512.62284485 -1.19177124 512.6206897 -2.19207764 512.61846924 C-16.52751026 512.56742827 -30.53525803 512.18471848 -44.625 509.3125 C-46.16414063 509.00650879 -46.16414063 509.00650879 -47.734375 508.69433594 C-91.46439229 499.79548467 -132.44407951 481.35857932 -166.05102539 451.69775391 C-167.19256925 450.69308199 -168.34113537 449.696371 -169.49389648 448.70458984 C-180.86277598 438.88947105 -191.45696198 428.21700565 -200.625 416.3125 C-201.38554687 415.38050781 -202.14609375 414.44851563 -202.9296875 413.48828125 C-210.77590421 403.69931121 -217.24507679 393.09801883 -223.625 382.3125 C-224.20894531 381.33506836 -224.20894531 381.33506836 -224.8046875 380.33789062 C-246.63644274 343.36343298 -256.10781833 299.25706264 -255.9375 256.6875 C-255.93534485 255.71661438 -255.9331897 254.74572876 -255.93096924 253.74542236 C-255.87992827 239.40998974 -255.49721848 225.40224197 -252.625 211.3125 C-252.42100586 210.28640625 -252.21701172 209.2603125 -252.00683594 208.203125 C-242.92422076 163.57006993 -223.87837333 122.51996164 -193.625 88.3125 C-192.90054688 87.4771875 -192.17609375 86.641875 -191.4296875 85.78125 C-181.6849286 74.70602587 -171.28537586 64.36135088 -159.625 55.3125 C-158.69042969 54.549375 -157.75585938 53.78625 -156.79296875 53 C-147.00443247 45.15911856 -136.40748792 38.69063034 -125.625 32.3125 C-124.97337891 31.92320313 -124.32175781 31.53390625 -123.65039062 31.1328125 C-86.67593298 9.30105726 -42.56956264 -0.17031833 0 0 Z M-107.625 158.3125 C-107.21621109 158.85741592 -106.80742218 159.40233185 -106.38624573 159.96376038 C-105.8482988 160.68091721 -105.31035187 161.39807404 -104.75610352 162.13696289 C-104.22356461 162.84687881 -103.6910257 163.55679474 -103.14234924 164.28822327 C-101.93572519 165.89796539 -100.7311741 167.50926131 -99.52734375 169.12109375 C-93.51686675 177.16294468 -87.42065572 185.1376732 -81.31445312 193.10693359 C-78.58233178 196.67369432 -75.85380728 200.24320359 -73.125 203.8125 C-72.0416848 205.22918053 -70.95835145 206.64584718 -69.875 208.0625 C-63.375 216.5625 -56.875 225.0625 -50.375 233.5625 C-49.56905396 234.61594604 -49.56905396 234.61594604 -48.74682617 235.69067383 C-47.67281293 237.09579938 -46.60004114 238.50187479 -45.52856445 239.90893555 C-42.68752892 243.63625299 -39.82154353 247.34066036 -36.91796875 251.01953125 C-36.3146875 251.79039062 -35.71140625 252.56125 -35.08984375 253.35546875 C-33.92969634 254.83688776 -32.76203345 256.31246049 -31.5859375 257.78125 C-31.06644531 258.44769531 -30.54695313 259.11414063 -30.01171875 259.80078125 C-29.54983154 260.38384033 -29.08794434 260.96689941 -28.61206055 261.56762695 C-27.625 263.3125 -27.625 263.3125 -27.625 267.3125 C-29.27734375 269.50390625 -29.27734375 269.50390625 -31.5625 271.875 C-34.83633826 275.36301459 -37.95299728 278.88617241 -40.9375 282.625 C-44.82820708 287.43915588 -48.95500466 291.96174334 -53.18286133 296.47583008 C-56.30024726 299.82314243 -59.26059167 303.24236788 -62.125 306.8125 C-65.94494011 311.57358478 -70.01438819 316.02523025 -74.18359375 320.4765625 C-78.07767072 324.65798866 -81.6863474 329.0155017 -85.2578125 333.4765625 C-88.53374049 337.40118911 -92.01938833 341.11720025 -95.55273438 344.81054688 C-98.38189714 347.80502592 -100.57045694 350.75474253 -102.625 354.3125 C-98.25127273 354.58725092 -93.88226819 354.7852289 -89.50244141 354.91674805 C-88.01782693 354.97162053 -86.53379466 355.04636328 -85.05126953 355.14233398 C-75.76843769 355.77726182 -75.76843769 355.77726182 -67.50830078 352.00390625 C-64.96543208 349.22151573 -62.78163369 346.40040733 -60.625 343.3125 C-59.1775051 341.51206559 -57.72063152 339.71908595 -56.25 337.9375 C-55.52039063 337.03257812 -54.79078125 336.12765625 -54.0390625 335.1953125 C-50.84790434 331.38451198 -47.46369997 327.77566227 -44.06689453 324.14892578 C-40.94960664 320.80168215 -37.98933518 317.38254094 -35.125 313.8125 C-31.73611635 309.59179946 -28.18550664 305.58458343 -24.5 301.625 C-23.98920898 301.07610107 -23.47841797 300.52720215 -22.95214844 299.96166992 C-21.96466702 298.90139135 -20.97704203 297.84124648 -19.98925781 296.78125 C-18.09871862 294.74590931 -16.227512 292.69501341 -14.375 290.625 C-13.83359375 290.02300781 -13.2921875 289.42101562 -12.734375 288.80078125 C-11.4257865 287.35462161 -11.4257865 287.35462161 -11.625 285.3125 C-10.965 285.3125 -10.305 285.3125 -9.625 285.3125 C-9.35655273 285.88726074 -9.08810547 286.46202148 -8.81152344 287.05419922 C-7.59196064 289.37538356 -6.21708043 291.3515376 -4.640625 293.4453125 C-3.7431958 294.64063599 -3.7431958 294.64063599 -2.82763672 295.86010742 C-2.1832666 296.71064697 -1.53889648 297.56118652 -0.875 298.4375 C-0.2061377 299.32477783 0.46272461 300.21205566 1.15185547 301.1262207 C6.68322819 308.44432185 12.30407403 315.6905771 17.953125 322.91796875 C21.93216364 328.01454881 25.85378324 333.15455402 29.76220703 338.30541992 C30.72730841 339.57348863 31.70550907 340.83172521 32.69830322 342.07823181 C34.375 344.3125 34.375 344.3125 35.89590454 346.86239624 C38.63025327 351.05495456 40.68248614 353.85734709 45.63986206 355.19049072 C49.66238373 355.47003285 53.56966428 355.44017884 57.59375 355.2890625 C59.06200314 355.27038227 60.53031915 355.25616132 61.99865723 355.2461853 C65.84069673 355.20822337 69.67888072 355.11021285 73.51940918 354.99914551 C77.44730469 354.89635299 81.37583114 354.85107282 85.3046875 354.80078125 C92.9965388 354.6939268 100.68522678 354.5235524 108.375 354.3125 C107.9801239 353.78698044 107.5852478 353.26146088 107.17840576 352.72001648 C104.46218259 349.10232086 101.75033033 345.48243896 99.078125 341.83203125 C92.75383238 333.20997897 86.3738149 324.64802477 79.82714844 316.19335938 C70.9214519 304.65847604 62.13697284 293.0397426 53.53320312 281.27807617 C49.49238001 275.77493124 45.3373045 270.37266221 41.125 265 C39.41608242 262.80664227 37.7097428 260.61133303 36.00585938 258.4140625 C34.92688137 257.0236669 33.84489188 255.63560257 32.75976562 254.25 C31.27878797 252.34721315 29.82371364 250.4274078 28.375 248.5 C27.93510742 247.9433667 27.49521484 247.3867334 27.04199219 246.81323242 C25.875 245.23046875 25.875 245.23046875 24.375 242.3125 C25.13683382 237.57137882 28.6997169 234.51744772 31.9375 231.1875 C35.7459605 227.17452789 39.4180042 223.13850209 42.875 218.8125 C46.69494011 214.05141522 50.76438819 209.59976975 54.93359375 205.1484375 C58.05068554 201.80133131 61.01081113 198.38235859 63.875 194.8125 C67.69001433 190.0575546 71.75278575 185.61019228 75.91821289 181.16601562 C79.93988965 176.84975539 83.67822995 172.37816696 87.33984375 167.75 C89.375 165.3125 89.375 165.3125 92.12890625 162.625 C94.60724408 160.610682 94.60724408 160.610682 94.375 158.3125 C90.08849008 158.13837608 85.80389477 158.01194489 81.51489258 157.92797852 C80.05879837 157.89295219 78.60294726 157.84531194 77.14770508 157.78442383 C68.75090687 157.21558083 68.75090687 157.21558083 60.96411133 159.72167969 C59.17777261 161.48290586 57.77757473 163.23736469 56.375 165.3125 C55.27091797 166.61574219 55.27091797 166.61574219 54.14453125 167.9453125 C53.17580078 169.17894531 53.17580078 169.17894531 52.1875 170.4375 C48.7373864 174.72810124 45.13727908 178.79916491 41.375 182.8125 C37.72595166 186.70809793 34.21800105 190.64586101 30.875 194.8125 C26.99148124 199.6509824 22.86219443 204.19681594 18.63183594 208.72924805 C15.10678473 212.50682485 11.69252388 216.34990203 8.375 220.3125 C3.92880135 216.16437054 0.48177051 211.55181571 -3.0625 206.625 C-7.80996384 200.09912113 -12.63871953 193.65777803 -17.625 187.3125 C-24.4290177 178.64563849 -30.96460255 169.79256479 -37.44848633 160.88452148 C-38.53482522 159.35519791 -38.53482522 159.35519791 -39.625 158.3125 C-41.74181317 158.2182826 -43.86180758 158.19507239 -45.98071289 158.19897461 C-46.97579613 158.19875557 -46.97579613 158.19875557 -47.99098206 158.1985321 C-50.19323956 158.19923119 -52.39541345 158.20702335 -54.59765625 158.21484375 C-56.12080336 158.21670794 -57.64395107 158.21813184 -59.167099 158.21913147 C-63.18337651 158.22295654 -67.19961808 158.23278672 -71.21588135 158.24383545 C-75.31123366 158.25404981 -79.40659176 158.25862914 -83.50195312 158.26367188 C-91.54298528 158.274409 -99.58398817 158.29148528 -107.625 158.3125 Z " fill="#FEFEFE" transform="translate(255.625,-0.3125)"/>
<path d="M0 0 C6.95653365 -1.22979088 14.1495115 -2.11180473 21 0 C26.58392511 4.10302085 29.8785263 10.50893873 33.36279297 16.36621094 C35.92966016 20.49555231 38.95327471 24.21887529 42 28 C47.39812287 34.85994207 52.59974187 41.84741465 57.75 48.89453125 C61.74126806 54.33797943 65.83358142 59.68967632 70 65 C75.38843796 71.86785285 80.59945326 78.84701976 85.75 85.89453125 C89.74126806 91.33797943 93.83358142 96.68967632 98 102 C103.38326507 108.86125972 108.59079254 115.83267263 113.73461914 122.87475586 C117.87017545 128.51721385 122.12064527 134.05778978 126.4375 139.5625 C140 156.86747351 140 156.86747351 140 159 C123.61015465 161.5001459 123.61015465 161.5001459 117.98632812 157.60546875 C114.15962447 153.68917672 111.34939798 149.05637671 108.51220703 144.39892578 C106.09681631 140.56721296 103.29582647 137.05813546 100.5 133.5 C99.41461202 132.0849069 98.33127988 130.6682346 97.25 129.25 C96.71375 128.54875 96.1775 127.8475 95.625 127.125 C67.1875 89.9375 67.1875 89.9375 38.75 52.75 C38.2139917 52.04907227 37.6779834 51.34814453 37.12573242 50.62597656 C36.03993353 49.20607316 34.95415888 47.78615122 33.8684082 46.36621094 C30.67118674 42.18497119 27.47316549 38.00434547 24.27416992 33.82446289 C23.22027105 32.44656187 22.16704314 31.06814739 21.11450195 29.68920898 C17.96313635 25.56093434 14.79927898 21.44272252 11.625 17.33203125 C10.14577782 15.40889687 8.66661043 13.48572034 7.1875 11.5625 C6.47489014 10.6437207 5.76228027 9.72494141 5.02807617 8.77832031 C4.37299072 7.92463867 3.71790527 7.07095703 3.04296875 6.19140625 C2.45539795 5.43029541 1.86782715 4.66918457 1.26245117 3.88500977 C0 2 0 2 0 0 Z " fill="#FEFEFE" transform="translate(186,176)"/>
</svg>
